%TF.GenerationSoftware,Altium Limited,Altium Designer,26.3.0 (6)*%
G04 Layer_Physical_Order=4*
G04 Layer_Color=16711680*
%FSLAX45Y45*%
%MOMM*%
%TF.SameCoordinates,45044A21-043D-4AD1-B40E-68CDC046F31A*%
%TF.FilePolarity,Positive*%
%TF.FileFunction,Copper,L4,Bot,Signal*%
%TF.Part,Single*%
G01*
G75*
%TA.AperFunction,Conductor*%
%ADD34C,0.25000*%
%ADD36C,0.75000*%
%ADD37C,1.00000*%
%ADD39C,0.20000*%
%TA.AperFunction,ComponentPad*%
%ADD41C,1.06700*%
%TA.AperFunction,WasherPad*%
%ADD42C,3.20000*%
%TA.AperFunction,ViaPad*%
%ADD43C,0.80000*%
%ADD44C,0.50000*%
%ADD45C,0.70000*%
%ADD46C,0.60000*%
%ADD47C,0.40000*%
D34*
X10860000Y9280000D02*
X11057500D01*
X10271250Y10046250D02*
X10275000Y10050000D01*
X9953750Y10046250D02*
X10271250D01*
X9950000Y10042500D02*
X9953750Y10046250D01*
D36*
X9075000Y9110000D02*
Y9237500D01*
D37*
X9727500Y6882500D02*
X10192500Y6890000D01*
D39*
X10730000Y9412500D02*
X10830000Y9512500D01*
Y9895000D01*
X9751716Y9412500D02*
X10730000D01*
X9740000Y9400784D02*
X9751716Y9412500D01*
X9740000Y9185000D02*
Y9400784D01*
X10830000Y9895000D02*
X10832500Y9897500D01*
X9430000Y8875000D02*
X9740000Y9185000D01*
X9430000Y8790000D02*
Y8875000D01*
D41*
X10574820Y9830600D02*
D03*
Y9627400D02*
D03*
X11082820Y9729000D02*
D03*
D42*
X11500000Y10000000D02*
D03*
X8500000Y7000000D02*
D03*
X11500000D02*
D03*
X8500000Y10000000D02*
D03*
D43*
X11700006Y9800005D02*
D03*
X11600006Y9600005D02*
D03*
Y8400005D02*
D03*
X11700006Y8200004D02*
D03*
X11600006Y8000004D02*
D03*
X11700006Y7800004D02*
D03*
X11600006Y7600004D02*
D03*
X11700006Y7400004D02*
D03*
X11600006Y7200004D02*
D03*
Y6800004D02*
D03*
X11400006Y9600005D02*
D03*
X11500006Y8600005D02*
D03*
X11400006Y8400005D02*
D03*
X11500006Y8200004D02*
D03*
X11400006Y7200004D02*
D03*
Y6800004D02*
D03*
X11200006Y9600005D02*
D03*
X11300006Y9400005D02*
D03*
X11200006Y9200005D02*
D03*
X11300006Y8600005D02*
D03*
Y8200004D02*
D03*
X11200006Y8000004D02*
D03*
X11300006Y7800004D02*
D03*
X11200006Y6800004D02*
D03*
X11100006Y8200004D02*
D03*
Y7000004D02*
D03*
X11000006Y6800004D02*
D03*
X10900006Y7000004D02*
D03*
X10800006Y6800004D02*
D03*
X10600006Y8400005D02*
D03*
Y6800004D02*
D03*
X10400006Y9600005D02*
D03*
Y7600004D02*
D03*
X10000005Y8000004D02*
D03*
Y7600004D02*
D03*
Y7200004D02*
D03*
X9900005Y8200004D02*
D03*
X9800005Y8000004D02*
D03*
X9900005Y7800004D02*
D03*
X9800005Y7600004D02*
D03*
X9900005Y7400004D02*
D03*
X9700005Y9800005D02*
D03*
Y7000004D02*
D03*
X9400005Y10000005D02*
D03*
X9500005Y7000004D02*
D03*
X9200005Y10000005D02*
D03*
Y8800005D02*
D03*
Y7600004D02*
D03*
X9300005Y7000004D02*
D03*
X9200005Y6800004D02*
D03*
X9000005Y10000005D02*
D03*
Y8800005D02*
D03*
Y7200004D02*
D03*
X8800005Y9600005D02*
D03*
Y8800005D02*
D03*
X8900005Y7400004D02*
D03*
X8800005Y7200004D02*
D03*
Y6800004D02*
D03*
X8600005Y9600005D02*
D03*
X8700005Y9000005D02*
D03*
X8600005Y8800005D02*
D03*
X8700005Y8600005D02*
D03*
X8600005Y8000004D02*
D03*
X8700005Y7400004D02*
D03*
X8600005Y7200004D02*
D03*
Y6800004D02*
D03*
X8500005Y7400004D02*
D03*
X8400005Y7200004D02*
D03*
D44*
X11057500Y9277500D02*
D03*
X10860000Y9280000D02*
D03*
X9170000Y9620000D02*
D03*
Y9730000D02*
D03*
X9280000Y9620000D02*
D03*
Y9730000D02*
D03*
X9930000Y9130000D02*
D03*
X10260000D02*
D03*
X10370000D02*
D03*
X10150000Y9020000D02*
D03*
X10260000D02*
D03*
X10370000D02*
D03*
X10150000Y8910000D02*
D03*
X10040000Y9130000D02*
D03*
X10150000D02*
D03*
X9930000Y9020000D02*
D03*
X10040000Y8910000D02*
D03*
Y9020000D02*
D03*
X10260000Y8910000D02*
D03*
X10370000D02*
D03*
X10150000Y8800000D02*
D03*
X10260000D02*
D03*
X10370000D02*
D03*
X10150000Y8690000D02*
D03*
X9930000Y8800000D02*
D03*
X10040000D02*
D03*
X9930000Y8910000D02*
D03*
X10040000Y8690000D02*
D03*
X9930000D02*
D03*
X10370000D02*
D03*
X10260000D02*
D03*
X9497500Y8717500D02*
D03*
X9453720Y9078087D02*
D03*
X9075000Y9237500D02*
D03*
Y9110000D02*
D03*
D45*
X9573631Y9401369D02*
D03*
X10275000Y10050000D02*
D03*
X10620000Y10045000D02*
D03*
X9950000Y10042500D02*
D03*
X10785000Y9177500D02*
D03*
X11175000Y8350000D02*
D03*
X11000000D02*
D03*
X10647500Y8485000D02*
D03*
X10387500Y8467500D02*
D03*
X11425000Y7925000D02*
D03*
X11125000Y7700000D02*
D03*
X10950000Y8075000D02*
D03*
X10860000Y7687500D02*
D03*
X10107500Y8247500D02*
D03*
X9878856Y9923122D02*
D03*
X8725000Y9800000D02*
D03*
Y9400000D02*
D03*
X9782500Y7065000D02*
D03*
X9150000Y8425000D02*
D03*
X8650000D02*
D03*
X9000000Y7950000D02*
D03*
X8650000Y8275000D02*
D03*
X10192500Y6890000D02*
D03*
X9727500Y6882500D02*
D03*
X9430000Y8790000D02*
D03*
D46*
X9902500Y9477500D02*
D03*
X10702500Y9902500D02*
D03*
X10832500Y9897500D02*
D03*
X11540000Y9155000D02*
D03*
D47*
X9242500Y9352500D02*
D03*
%TF.MD5,b1209199fec256e67f0131033fcb581b*%
M02*
