%TF.GenerationSoftware,Altium Limited,Altium Designer,26.3.0 (6)*%
G04 Layer_Color=8421504*
%FSLAX45Y45*%
%MOMM*%
%TF.SameCoordinates,45044A21-043D-4AD1-B40E-68CDC046F31A*%
%TF.FilePolarity,Positive*%
%TF.FileFunction,Paste,Top*%
%TF.Part,Single*%
G01*
G75*
%TA.AperFunction,BGAPad,CuDef*%
%ADD11C,0.86300*%
%TA.AperFunction,SMDPad,CuDef*%
%ADD12R,0.85000X0.35000*%
%ADD13R,0.35000X0.80000*%
%ADD14R,2.60000X2.70000*%
%ADD15O,0.25000X0.80000*%
%ADD16R,0.60000X0.70000*%
%ADD17R,0.70000X0.60000*%
%TA.AperFunction,ConnectorPad*%
%ADD18R,1.38000X0.45000*%
%TA.AperFunction,SMDPad,CuDef*%
%ADD19O,0.80000X0.25000*%
%ADD20R,1.00000X0.80000*%
%ADD21R,5.60000X5.60000*%
%ADD22R,1.25000X1.25000*%
%ADD23R,1.40000X1.70000*%
%ADD24R,1.70000X1.40000*%
%ADD25R,0.80000X1.00000*%
%ADD26R,0.65000X1.70000*%
%ADD27R,1.30000X1.10000*%
%ADD28R,3.50000X1.25000*%
%ADD29R,1.00000X2.90000*%
%TA.AperFunction,ConnectorPad*%
%ADD30R,1.30000X1.65000*%
%ADD31R,1.90000X1.80000*%
%ADD32R,1.90000X1.00000*%
%ADD33R,1.55000X1.42500*%
D11*
X10955820Y9665500D02*
D03*
X10701820D02*
D03*
X10828820D02*
D03*
Y9792500D02*
D03*
X10955820D02*
D03*
X10701820D02*
D03*
D12*
X9422500Y9800000D02*
D03*
X9027500Y9550000D02*
D03*
X9422500Y9750000D02*
D03*
Y9550000D02*
D03*
Y9600000D02*
D03*
Y9650000D02*
D03*
Y9700000D02*
D03*
X9027500Y9800000D02*
D03*
Y9650000D02*
D03*
Y9750000D02*
D03*
Y9600000D02*
D03*
Y9700000D02*
D03*
D13*
X9150000Y9475000D02*
D03*
X9200000D02*
D03*
X9250000D02*
D03*
X9300000D02*
D03*
X9100000Y9875000D02*
D03*
X9150000D02*
D03*
X9200000D02*
D03*
X9250000D02*
D03*
X9300000D02*
D03*
X9100000Y9475000D02*
D03*
X9350000D02*
D03*
Y9875000D02*
D03*
D14*
X9225000Y9675000D02*
D03*
D15*
X10175000Y9250000D02*
D03*
X10125000D02*
D03*
X9925000D02*
D03*
X10375000Y8570000D02*
D03*
X9875000Y9250000D02*
D03*
X10425000Y8570000D02*
D03*
X10025000Y9250000D02*
D03*
X9975000D02*
D03*
X10075000D02*
D03*
X10225000D02*
D03*
X10275000D02*
D03*
X10325000D02*
D03*
X10375000D02*
D03*
X10425000D02*
D03*
X10325000Y8570000D02*
D03*
X10275000D02*
D03*
X10225000D02*
D03*
X10175000D02*
D03*
X10125000D02*
D03*
X10075000D02*
D03*
X10025000D02*
D03*
X9975000D02*
D03*
X9925000D02*
D03*
X9875000D02*
D03*
D16*
X10300000Y9925000D02*
D03*
X10125000D02*
D03*
X10725000Y10050000D02*
D03*
X9900000Y9390000D02*
D03*
X10652500Y8592500D02*
D03*
X10387500Y8362500D02*
D03*
X9160000Y9352500D02*
D03*
X9062440Y8428740D02*
D03*
X8737440D02*
D03*
X11050000Y10050000D02*
D03*
X10400000Y9925000D02*
D03*
X10025000D02*
D03*
X9800000Y9390000D02*
D03*
X10487500Y8362500D02*
D03*
X9060000Y9352500D02*
D03*
X10950000Y10050000D02*
D03*
X10825000D02*
D03*
X10752500Y8742500D02*
D03*
X10652500D02*
D03*
X10752500Y8592500D02*
D03*
X8837440Y8428740D02*
D03*
X9062440Y8553740D02*
D03*
X8962440Y8428740D02*
D03*
X8962440Y8553740D02*
D03*
D17*
X9575000Y9600000D02*
D03*
X8825000Y9500000D02*
D03*
X10675000Y9175000D02*
D03*
X11425000Y7825000D02*
D03*
X9884998Y9819577D02*
D03*
X9575000Y9500000D02*
D03*
X8825000Y9800000D02*
D03*
Y9400000D02*
D03*
X9651600Y9085820D02*
D03*
X9602500Y8720000D02*
D03*
X10675000Y9275000D02*
D03*
X11425000Y7425000D02*
D03*
X8825000Y9900000D02*
D03*
X9651600Y9185820D02*
D03*
X9602500Y8620000D02*
D03*
X9884998Y9719577D02*
D03*
X11425000Y7525000D02*
D03*
Y7725000D02*
D03*
D18*
X11419000Y9155000D02*
D03*
Y8895000D02*
D03*
Y8960000D02*
D03*
Y9025000D02*
D03*
Y9090000D02*
D03*
D19*
X10490000Y9135000D02*
D03*
X9810000Y8835000D02*
D03*
X10490000Y9185000D02*
D03*
X9810000D02*
D03*
Y8785000D02*
D03*
X10490000Y9085000D02*
D03*
Y9035000D02*
D03*
Y8985000D02*
D03*
Y8935000D02*
D03*
Y8885000D02*
D03*
Y8835000D02*
D03*
Y8785000D02*
D03*
Y8735000D02*
D03*
Y8635000D02*
D03*
X9810000D02*
D03*
Y8685000D02*
D03*
Y8735000D02*
D03*
Y8935000D02*
D03*
Y8985000D02*
D03*
Y9035000D02*
D03*
Y9085000D02*
D03*
Y9135000D02*
D03*
Y8885000D02*
D03*
X10490000Y8685000D02*
D03*
D20*
X11173400Y8475400D02*
D03*
X11007500Y8462500D02*
D03*
X9501600Y9060820D02*
D03*
Y9210820D02*
D03*
X11173400Y8625400D02*
D03*
X11007500Y8612500D02*
D03*
D21*
X10150000Y8910000D02*
D03*
D22*
X10864700Y7799680D02*
D03*
X10635700D02*
D03*
X10406700D02*
D03*
D23*
X10789300Y8075000D02*
D03*
X10560700D02*
D03*
D24*
X11135700Y7559480D02*
D03*
Y7330880D02*
D03*
D25*
X10102500Y8372500D02*
D03*
X10252500D02*
D03*
X11148400Y8775400D02*
D03*
X10998400D02*
D03*
D26*
X9787500Y7215000D02*
D03*
X9162500D02*
D03*
X9412500D02*
D03*
X9537500D02*
D03*
X9287500D02*
D03*
X9662500D02*
D03*
D27*
X9002440Y8083740D02*
D03*
X8772440Y8273740D02*
D03*
Y8083740D02*
D03*
X9002440Y8273740D02*
D03*
D28*
X10635700Y7140680D02*
D03*
D29*
X9972500Y6935000D02*
D03*
X8977500D02*
D03*
D30*
X11685000Y8687500D02*
D03*
Y9362500D02*
D03*
D31*
Y8910000D02*
D03*
D32*
Y9180000D02*
D03*
D33*
X11427500Y8776250D02*
D03*
Y9273750D02*
D03*
%TF.MD5,93ec7d0631ff1f4b98a349a8e465f6fa*%
M02*
