%TF.GenerationSoftware,Altium Limited,Altium Designer,26.3.0 (6)*%
G04 Layer_Color=8388736*
%FSLAX45Y45*%
%MOMM*%
%TF.SameCoordinates,45044A21-043D-4AD1-B40E-68CDC046F31A*%
%TF.FilePolarity,Negative*%
%TF.FileFunction,Soldermask,Top*%
%TF.Part,Single*%
G01*
G75*
%TA.AperFunction,ConnectorPad*%
%ADD18R,1.38000X0.45000*%
%TA.AperFunction,SMDPad,CuDef*%
%ADD22R,1.25000X1.25000*%
%ADD28R,3.50000X1.25000*%
%TA.AperFunction,ConnectorPad*%
%ADD30R,1.30000X1.65000*%
%ADD31R,1.90000X1.80000*%
%ADD32R,1.90000X1.00000*%
%ADD33R,1.55000X1.42500*%
%TA.AperFunction,BGAPad,CuDef*%
%ADD53C,1.06620*%
%TA.AperFunction,SMDPad,CuDef*%
%ADD54R,1.05320X0.55320*%
%ADD55R,0.55320X1.00320*%
%ADD56R,2.80320X2.90320*%
%ADD57O,0.45320X1.00320*%
%ADD58R,0.80320X0.90320*%
%ADD59R,0.90320X0.80320*%
%ADD60O,1.00320X0.45320*%
%ADD61R,1.20320X1.00320*%
%ADD62R,5.80320X5.80320*%
%ADD63R,1.60320X1.90320*%
%ADD64R,1.90320X1.60320*%
%ADD65R,1.00320X1.20320*%
%ADD66R,0.85320X1.90320*%
%ADD67R,1.50320X1.30320*%
%ADD68R,1.20320X3.10320*%
%TA.AperFunction,ComponentPad*%
%ADD69C,1.27020*%
%TA.AperFunction,WasherPad*%
%ADD70C,3.40320*%
%TA.AperFunction,ViaPad*%
%ADD71C,1.00320*%
%ADD72C,0.70320*%
%ADD73C,0.90320*%
%ADD74C,0.80320*%
%ADD75C,0.60320*%
D18*
X11419000Y9155000D02*
D03*
Y8895000D02*
D03*
Y8960000D02*
D03*
Y9025000D02*
D03*
Y9090000D02*
D03*
D22*
X10864700Y7799680D02*
D03*
X10635700D02*
D03*
X10406700D02*
D03*
D28*
X10635700Y7140680D02*
D03*
D30*
X11685000Y8687500D02*
D03*
Y9362500D02*
D03*
D31*
Y8910000D02*
D03*
D32*
Y9180000D02*
D03*
D33*
X11427500Y8776250D02*
D03*
Y9273750D02*
D03*
D53*
X10955820Y9665500D02*
D03*
X10701820D02*
D03*
X10828820D02*
D03*
Y9792500D02*
D03*
X10955820D02*
D03*
X10701820D02*
D03*
D54*
X9422500Y9800000D02*
D03*
X9027500Y9550000D02*
D03*
X9422500Y9750000D02*
D03*
Y9550000D02*
D03*
Y9600000D02*
D03*
Y9650000D02*
D03*
Y9700000D02*
D03*
X9027500Y9800000D02*
D03*
Y9650000D02*
D03*
Y9750000D02*
D03*
Y9600000D02*
D03*
Y9700000D02*
D03*
D55*
X9150000Y9475000D02*
D03*
X9200000D02*
D03*
X9250000D02*
D03*
X9300000D02*
D03*
X9100000Y9875000D02*
D03*
X9150000D02*
D03*
X9200000D02*
D03*
X9250000D02*
D03*
X9300000D02*
D03*
X9100000Y9475000D02*
D03*
X9350000D02*
D03*
Y9875000D02*
D03*
D56*
X9225000Y9675000D02*
D03*
D57*
X10175000Y9250000D02*
D03*
X10125000D02*
D03*
X9925000D02*
D03*
X10375000Y8570000D02*
D03*
X9875000Y9250000D02*
D03*
X10425000Y8570000D02*
D03*
X10025000Y9250000D02*
D03*
X9975000D02*
D03*
X10075000D02*
D03*
X10225000D02*
D03*
X10275000D02*
D03*
X10325000D02*
D03*
X10375000D02*
D03*
X10425000D02*
D03*
X10325000Y8570000D02*
D03*
X10275000D02*
D03*
X10225000D02*
D03*
X10175000D02*
D03*
X10125000D02*
D03*
X10075000D02*
D03*
X10025000D02*
D03*
X9975000D02*
D03*
X9925000D02*
D03*
X9875000D02*
D03*
D58*
X10300000Y9925000D02*
D03*
X10125000D02*
D03*
X10725000Y10050000D02*
D03*
X9900000Y9390000D02*
D03*
X10652500Y8592500D02*
D03*
X10387500Y8362500D02*
D03*
X9160000Y9352500D02*
D03*
X9062440Y8428740D02*
D03*
X8737440D02*
D03*
X11050000Y10050000D02*
D03*
X10400000Y9925000D02*
D03*
X10025000D02*
D03*
X9800000Y9390000D02*
D03*
X10487500Y8362500D02*
D03*
X9060000Y9352500D02*
D03*
X10950000Y10050000D02*
D03*
X10825000D02*
D03*
X10752500Y8742500D02*
D03*
X10652500D02*
D03*
X10752500Y8592500D02*
D03*
X8837440Y8428740D02*
D03*
X9062440Y8553740D02*
D03*
X8962440Y8428740D02*
D03*
X8962440Y8553740D02*
D03*
D59*
X9575000Y9600000D02*
D03*
X8825000Y9500000D02*
D03*
X10675000Y9175000D02*
D03*
X11425000Y7825000D02*
D03*
X9884998Y9819577D02*
D03*
X9575000Y9500000D02*
D03*
X8825000Y9800000D02*
D03*
Y9400000D02*
D03*
X9651600Y9085820D02*
D03*
X9602500Y8720000D02*
D03*
X10675000Y9275000D02*
D03*
X11425000Y7425000D02*
D03*
X8825000Y9900000D02*
D03*
X9651600Y9185820D02*
D03*
X9602500Y8620000D02*
D03*
X9884998Y9719577D02*
D03*
X11425000Y7525000D02*
D03*
Y7725000D02*
D03*
D60*
X10490000Y9135000D02*
D03*
X9810000Y8835000D02*
D03*
X10490000Y9185000D02*
D03*
X9810000D02*
D03*
Y8785000D02*
D03*
X10490000Y9085000D02*
D03*
Y9035000D02*
D03*
Y8985000D02*
D03*
Y8935000D02*
D03*
Y8885000D02*
D03*
Y8835000D02*
D03*
Y8785000D02*
D03*
Y8735000D02*
D03*
Y8635000D02*
D03*
X9810000D02*
D03*
Y8685000D02*
D03*
Y8735000D02*
D03*
Y8935000D02*
D03*
Y8985000D02*
D03*
Y9035000D02*
D03*
Y9085000D02*
D03*
Y9135000D02*
D03*
Y8885000D02*
D03*
X10490000Y8685000D02*
D03*
D61*
X11173400Y8475400D02*
D03*
X11007500Y8462500D02*
D03*
X9501600Y9060820D02*
D03*
Y9210820D02*
D03*
X11173400Y8625400D02*
D03*
X11007500Y8612500D02*
D03*
D62*
X10150000Y8910000D02*
D03*
D63*
X10789300Y8075000D02*
D03*
X10560700D02*
D03*
D64*
X11135700Y7559480D02*
D03*
Y7330880D02*
D03*
D65*
X10102500Y8372500D02*
D03*
X10252500D02*
D03*
X11148400Y8775400D02*
D03*
X10998400D02*
D03*
D66*
X9787500Y7215000D02*
D03*
X9162500D02*
D03*
X9412500D02*
D03*
X9537500D02*
D03*
X9287500D02*
D03*
X9662500D02*
D03*
D67*
X9002440Y8083740D02*
D03*
X8772440Y8273740D02*
D03*
Y8083740D02*
D03*
X9002440Y8273740D02*
D03*
D68*
X9972500Y6935000D02*
D03*
X8977500D02*
D03*
D69*
X10574820Y9830600D02*
D03*
Y9627400D02*
D03*
X11082820Y9729000D02*
D03*
D70*
X11500000Y10000000D02*
D03*
X8500000Y7000000D02*
D03*
X11500000D02*
D03*
X8500000Y10000000D02*
D03*
D71*
X11700006Y9800005D02*
D03*
X11600006Y9600005D02*
D03*
Y8400005D02*
D03*
X11700006Y8200004D02*
D03*
X11600006Y8000004D02*
D03*
X11700006Y7800004D02*
D03*
X11600006Y7600004D02*
D03*
X11700006Y7400004D02*
D03*
X11600006Y7200004D02*
D03*
Y6800004D02*
D03*
X11400006Y9600005D02*
D03*
X11500006Y8600005D02*
D03*
X11400006Y8400005D02*
D03*
X11500006Y8200004D02*
D03*
X11400006Y7200004D02*
D03*
Y6800004D02*
D03*
X11200006Y9600005D02*
D03*
X11300006Y9400005D02*
D03*
X11200006Y9200005D02*
D03*
X11300006Y8600005D02*
D03*
Y8200004D02*
D03*
X11200006Y8000004D02*
D03*
X11300006Y7800004D02*
D03*
X11200006Y6800004D02*
D03*
X11100006Y8200004D02*
D03*
Y7000004D02*
D03*
X11000006Y6800004D02*
D03*
X10900006Y7000004D02*
D03*
X10800006Y6800004D02*
D03*
X10600006Y8400005D02*
D03*
Y6800004D02*
D03*
X10400006Y9600005D02*
D03*
Y7600004D02*
D03*
X10000005Y8000004D02*
D03*
Y7600004D02*
D03*
Y7200004D02*
D03*
X9900005Y8200004D02*
D03*
X9800005Y8000004D02*
D03*
X9900005Y7800004D02*
D03*
X9800005Y7600004D02*
D03*
X9900005Y7400004D02*
D03*
X9700005Y9800005D02*
D03*
Y7000004D02*
D03*
X9400005Y10000005D02*
D03*
X9500005Y7000004D02*
D03*
X9200005Y10000005D02*
D03*
Y8800005D02*
D03*
Y7600004D02*
D03*
X9300005Y7000004D02*
D03*
X9200005Y6800004D02*
D03*
X9000005Y10000005D02*
D03*
Y8800005D02*
D03*
Y7200004D02*
D03*
X8800005Y9600005D02*
D03*
Y8800005D02*
D03*
X8900005Y7400004D02*
D03*
X8800005Y7200004D02*
D03*
Y6800004D02*
D03*
X8600005Y9600005D02*
D03*
X8700005Y9000005D02*
D03*
X8600005Y8800005D02*
D03*
X8700005Y8600005D02*
D03*
X8600005Y8000004D02*
D03*
X8700005Y7400004D02*
D03*
X8600005Y7200004D02*
D03*
Y6800004D02*
D03*
X8500005Y7400004D02*
D03*
X8400005Y7200004D02*
D03*
D72*
X11057500Y9277500D02*
D03*
X10860000Y9280000D02*
D03*
X9170000Y9620000D02*
D03*
Y9730000D02*
D03*
X9280000Y9620000D02*
D03*
Y9730000D02*
D03*
X9930000Y9130000D02*
D03*
X10260000D02*
D03*
X10370000D02*
D03*
X10150000Y9020000D02*
D03*
X10260000D02*
D03*
X10370000D02*
D03*
X10150000Y8910000D02*
D03*
X10040000Y9130000D02*
D03*
X10150000D02*
D03*
X9930000Y9020000D02*
D03*
X10040000Y8910000D02*
D03*
Y9020000D02*
D03*
X10260000Y8910000D02*
D03*
X10370000D02*
D03*
X10150000Y8800000D02*
D03*
X10260000D02*
D03*
X10370000D02*
D03*
X10150000Y8690000D02*
D03*
X9930000Y8800000D02*
D03*
X10040000D02*
D03*
X9930000Y8910000D02*
D03*
X10040000Y8690000D02*
D03*
X9930000D02*
D03*
X10370000D02*
D03*
X10260000D02*
D03*
X9497500Y8717500D02*
D03*
X9453720Y9078087D02*
D03*
X9075000Y9237500D02*
D03*
Y9110000D02*
D03*
D73*
X9573631Y9401369D02*
D03*
X10275000Y10050000D02*
D03*
X10620000Y10045000D02*
D03*
X9950000Y10042500D02*
D03*
X10785000Y9177500D02*
D03*
X11175000Y8350000D02*
D03*
X11000000D02*
D03*
X10647500Y8485000D02*
D03*
X10387500Y8467500D02*
D03*
X11425000Y7925000D02*
D03*
X11125000Y7700000D02*
D03*
X10950000Y8075000D02*
D03*
X10860000Y7687500D02*
D03*
X10107500Y8247500D02*
D03*
X9878856Y9923122D02*
D03*
X8725000Y9800000D02*
D03*
Y9400000D02*
D03*
X9782500Y7065000D02*
D03*
X9150000Y8425000D02*
D03*
X8650000D02*
D03*
X9000000Y7950000D02*
D03*
X8650000Y8275000D02*
D03*
X10192500Y6890000D02*
D03*
X9727500Y6882500D02*
D03*
X9430000Y8790000D02*
D03*
D74*
X9902500Y9477500D02*
D03*
X10702500Y9902500D02*
D03*
X10832500Y9897500D02*
D03*
X11540000Y9155000D02*
D03*
D75*
X9242500Y9352500D02*
D03*
%TF.MD5,8eb2fb6b38300e81f377e492fe0650ee*%
M02*
