%TF.GenerationSoftware,Altium Limited,Altium Designer,26.3.0 (6)*%
G04 Layer_Physical_Order=1*
G04 Layer_Color=255*
%FSLAX45Y45*%
%MOMM*%
%TF.SameCoordinates,45044A21-043D-4AD1-B40E-68CDC046F31A*%
%TF.FilePolarity,Positive*%
%TF.FileFunction,Copper,L1,Top,Signal*%
%TF.Part,Single*%
G01*
G75*
%TA.AperFunction,Conductor*%
%ADD10C,0.50000*%
%TA.AperFunction,BGAPad,CuDef*%
%ADD11C,0.86300*%
%TA.AperFunction,SMDPad,CuDef*%
%ADD12R,0.85000X0.35000*%
%ADD13R,0.35000X0.80000*%
%ADD14R,2.60000X2.70000*%
%ADD15O,0.25000X0.80000*%
%ADD16R,0.60000X0.70000*%
%ADD17R,0.70000X0.60000*%
%TA.AperFunction,ConnectorPad*%
%ADD18R,1.38000X0.45000*%
%TA.AperFunction,SMDPad,CuDef*%
%ADD19O,0.80000X0.25000*%
%ADD20R,1.00000X0.80000*%
%ADD21R,5.60000X5.60000*%
%ADD22R,1.25000X1.25000*%
%ADD23R,1.40000X1.70000*%
%ADD24R,1.70000X1.40000*%
%ADD25R,0.80000X1.00000*%
%ADD26R,0.65000X1.70000*%
%ADD27R,1.30000X1.10000*%
%ADD28R,3.50000X1.25000*%
%ADD29R,1.00000X2.90000*%
%TA.AperFunction,ConnectorPad*%
%ADD30R,1.30000X1.65000*%
%ADD31R,1.90000X1.80000*%
%ADD32R,1.90000X1.00000*%
%ADD33R,1.55000X1.42500*%
%TA.AperFunction,Conductor*%
%ADD34C,0.25000*%
%ADD35C,0.30000*%
%ADD36C,0.75000*%
%ADD37C,1.00000*%
%ADD38C,0.40000*%
%ADD39C,0.20000*%
%ADD40C,0.26017*%
%TA.AperFunction,ComponentPad*%
%ADD41C,1.06700*%
%TA.AperFunction,WasherPad*%
%ADD42C,3.20000*%
%TA.AperFunction,ViaPad*%
%ADD43C,0.80000*%
%ADD44C,0.50000*%
%ADD45C,0.70000*%
%ADD46C,0.60000*%
%ADD47C,0.40000*%
G36*
X11495000Y8872500D02*
X11490000Y8867500D01*
X11330000D01*
Y8860000D01*
X11242500Y8772500D01*
X11237500D01*
Y8582500D01*
X11229539Y8572500D01*
X11090392D01*
Y8836709D01*
X11092457Y8841545D01*
X11100417Y8847500D01*
X11200000D01*
Y8817961D01*
X11199999D01*
X11199999Y8810000D01*
X11205000Y8804999D01*
X11212701Y8812700D01*
X11212700Y8812700D01*
X11300000Y8900000D01*
X11335000D01*
X11342500Y8907500D01*
Y8917500D01*
X11495000D01*
Y8872500D01*
D02*
G37*
G36*
X11070000Y8570000D02*
X11060000Y8560000D01*
X10945000D01*
X10670000Y8285000D01*
Y7980000D01*
X10640000Y7950000D01*
X10510000D01*
Y7730000D01*
X10490000Y7710000D01*
X10350000D01*
X10330000Y7730000D01*
Y7890000D01*
X10380000D01*
X10460000Y7970000D01*
Y8200000D01*
X10540000D01*
X10810000Y8470000D01*
Y8560000D01*
X10940000Y8690000D01*
Y8840000D01*
X11070000D01*
Y8570000D01*
D02*
G37*
G36*
X11247500Y8282500D02*
X11222500Y8257500D01*
X11015000D01*
Y8210000D01*
X11075000Y8150000D01*
Y8097500D01*
X11070000D01*
X10935000Y7962500D01*
Y7777500D01*
X11237500D01*
X11245000Y7770000D01*
Y7481404D01*
X11232544Y7472303D01*
X11225000Y7469398D01*
X11220000Y7470392D01*
X11032108D01*
X11027500Y7475000D01*
Y7590000D01*
X10825000D01*
X10792500Y7622500D01*
Y7932500D01*
X10725000D01*
X10690000Y7967500D01*
Y7978030D01*
X10690392Y7980000D01*
Y8210000D01*
X10862500D01*
X10932500Y8280000D01*
Y8518662D01*
X10943838Y8530000D01*
X11245000D01*
X11247500Y8282500D01*
D02*
G37*
G36*
X10720000Y7450000D02*
X11220000D01*
X11250000Y7420000D01*
Y7240000D01*
X10930000D01*
X10900000Y7210000D01*
X10840000D01*
Y7080000D01*
X10810000Y7050000D01*
X10440000D01*
Y7250000D01*
X10560000Y7370000D01*
Y7870000D01*
X10720000D01*
Y7450000D01*
D02*
G37*
%LPC*%
G36*
X11175000Y8395882D02*
X11173400D01*
X11155842Y8392389D01*
X11140957Y8382443D01*
X11131011Y8367558D01*
X11127519Y8350000D01*
X11131011Y8332442D01*
X11140957Y8317557D01*
X11155842Y8307611D01*
X11173400Y8304119D01*
X11175000D01*
X11192558Y8307611D01*
X11207443Y8317557D01*
X11217389Y8332442D01*
X11220882Y8350000D01*
X11217389Y8367558D01*
X11207443Y8382443D01*
X11192558Y8392389D01*
X11175000Y8395882D01*
D02*
G37*
G36*
X11125000Y7745882D02*
X11107442Y7742389D01*
X11092557Y7732443D01*
X11082611Y7717558D01*
X11079119Y7700000D01*
Y7694588D01*
X11082611Y7677030D01*
X11092557Y7662145D01*
X11107442Y7652199D01*
X11125000Y7648706D01*
X11142558Y7652199D01*
X11157443Y7662145D01*
X11167389Y7677030D01*
X11170882Y7694588D01*
Y7700000D01*
X11167389Y7717558D01*
X11157443Y7732443D01*
X11142558Y7742389D01*
X11125000Y7745882D01*
D02*
G37*
%LPD*%
D10*
X10647500Y8485000D02*
G03*
X10652500Y8490000I0J5000D01*
G01*
X10102500Y8252500D02*
G03*
X10107500Y8247500I5000J0D01*
G01*
X9782500Y7065000D02*
G03*
X9787500Y7070000I0J5000D01*
G01*
X9002440Y8083740D02*
G03*
X9000000Y8081300I0J-2440D01*
G01*
X10400000Y10126066D02*
X10453934Y10180000D01*
X10400000Y9925000D02*
Y10126066D01*
X11307500Y9582500D02*
Y9762500D01*
X9573631Y9401369D02*
X9574316Y9402054D01*
Y9499316D01*
X9575000Y9500000D01*
X10702500Y9809268D02*
Y9902500D01*
X10701820Y9808588D02*
X10702500Y9809268D01*
X10701820Y9792500D02*
Y9808588D01*
X10722500Y10047500D02*
X10725000Y10050000D01*
X10622500Y10047500D02*
X10722500D01*
X10620000Y10045000D02*
X10622500Y10047500D01*
X10652500Y8490000D02*
Y8592500D01*
X11425000Y7825000D02*
Y7925000D01*
X11173400Y8350000D02*
X11175000D01*
X11125000Y7694588D02*
Y7700000D01*
X10387500Y8362500D02*
Y8467500D01*
Y8362500D02*
X10387500Y8362500D01*
X10102500Y8252500D02*
Y8372500D01*
X9878856Y9923122D02*
X9881927Y9920051D01*
Y9822649D02*
X9883749Y9820826D01*
X9881927Y9822649D02*
Y9920051D01*
X9242500Y9352500D02*
X9242500Y9352500D01*
X9160000Y9352500D02*
X9242500D01*
X8725000Y9800000D02*
X8825000D01*
X8725000Y9400000D02*
X8825000D01*
X9787500Y7070000D02*
Y7215000D01*
X9782500Y7065000D02*
X9785000Y7067500D01*
X9500000Y8720000D02*
X9602500D01*
X9497500Y8717500D02*
X9500000Y8720000D01*
X9062440Y8428740D02*
X9064310Y8426870D01*
X8735570D02*
X8737440Y8428740D01*
X8651870Y8426870D02*
X8735570D01*
X8650000Y8425000D02*
X8651870Y8426870D01*
X9064310D02*
X9148130D01*
X9150000Y8425000D01*
X9000000Y7950000D02*
Y8081300D01*
X8650630Y8274370D02*
X8771810D01*
X8772440Y8273740D01*
X8650000Y8275000D02*
X8650630Y8274370D01*
X10487500Y8362500D02*
Y8435000D01*
Y8362500D02*
X10487500Y8362500D01*
X10482500Y8292500D02*
Y8357500D01*
X10487500Y8362500D01*
X10302500Y8112500D02*
X10482500Y8292500D01*
X9075000Y9237500D02*
X9240000D01*
X9060000Y9252500D02*
X9075000Y9237500D01*
X9240000D02*
X9317500Y9315000D01*
X8825000Y9977500D02*
X8862500Y10015000D01*
X8825000Y9900000D02*
Y9977500D01*
X9060000Y9252500D02*
Y9352500D01*
X8577500Y9727500D02*
X8617500Y9767500D01*
Y9802500D01*
X9526600Y9205820D02*
X9626600D01*
X9646600Y9185820D01*
X9525000Y9200000D02*
Y9204219D01*
X9646600Y9185820D02*
X9651600D01*
X9514180Y9210820D02*
X9525000Y9200000D01*
Y9204219D02*
X9526600Y9205820D01*
X9501600Y9210820D02*
X9514180D01*
X9510000Y8620000D02*
X9602500D01*
X9231371Y9108872D02*
X9389652D01*
X9155000Y8265000D02*
X9510000Y8620000D01*
X9155000Y8195000D02*
Y8265000D01*
X9162500Y7215000D02*
Y7392500D01*
X9165000Y6967500D02*
Y7212500D01*
X9162500Y7215000D02*
X9165000Y7212500D01*
D11*
X10955820Y9665500D02*
D03*
X10701820D02*
D03*
X10828820D02*
D03*
Y9792500D02*
D03*
X10955820D02*
D03*
X10701820D02*
D03*
D12*
X9422500Y9800000D02*
D03*
X9027500Y9550000D02*
D03*
X9422500Y9750000D02*
D03*
Y9550000D02*
D03*
Y9600000D02*
D03*
Y9650000D02*
D03*
Y9700000D02*
D03*
X9027500Y9800000D02*
D03*
Y9650000D02*
D03*
Y9750000D02*
D03*
Y9600000D02*
D03*
Y9700000D02*
D03*
D13*
X9150000Y9475000D02*
D03*
X9200000D02*
D03*
X9250000D02*
D03*
X9300000D02*
D03*
X9100000Y9875000D02*
D03*
X9150000D02*
D03*
X9200000D02*
D03*
X9250000D02*
D03*
X9300000D02*
D03*
X9100000Y9475000D02*
D03*
X9350000D02*
D03*
Y9875000D02*
D03*
D14*
X9225000Y9675000D02*
D03*
D15*
X10175000Y9250000D02*
D03*
X10125000D02*
D03*
X9925000D02*
D03*
X10375000Y8570000D02*
D03*
X9875000Y9250000D02*
D03*
X10425000Y8570000D02*
D03*
X10025000Y9250000D02*
D03*
X9975000D02*
D03*
X10075000D02*
D03*
X10225000D02*
D03*
X10275000D02*
D03*
X10325000D02*
D03*
X10375000D02*
D03*
X10425000D02*
D03*
X10325000Y8570000D02*
D03*
X10275000D02*
D03*
X10225000D02*
D03*
X10175000D02*
D03*
X10125000D02*
D03*
X10075000D02*
D03*
X10025000D02*
D03*
X9975000D02*
D03*
X9925000D02*
D03*
X9875000D02*
D03*
D16*
X10300000Y9925000D02*
D03*
X10125000D02*
D03*
X10725000Y10050000D02*
D03*
X9900000Y9390000D02*
D03*
X10652500Y8592500D02*
D03*
X10387500Y8362500D02*
D03*
X9160000Y9352500D02*
D03*
X9062440Y8428740D02*
D03*
X8737440D02*
D03*
X11050000Y10050000D02*
D03*
X10400000Y9925000D02*
D03*
X10025000D02*
D03*
X9800000Y9390000D02*
D03*
X10487500Y8362500D02*
D03*
X9060000Y9352500D02*
D03*
X10950000Y10050000D02*
D03*
X10825000D02*
D03*
X10752500Y8742500D02*
D03*
X10652500D02*
D03*
X10752500Y8592500D02*
D03*
X8837440Y8428740D02*
D03*
X9062440Y8553740D02*
D03*
X8962440Y8428740D02*
D03*
X8962440Y8553740D02*
D03*
D17*
X9575000Y9600000D02*
D03*
X8825000Y9500000D02*
D03*
X10675000Y9175000D02*
D03*
X11425000Y7825000D02*
D03*
X9884998Y9819577D02*
D03*
X9575000Y9500000D02*
D03*
X8825000Y9800000D02*
D03*
Y9400000D02*
D03*
X9651600Y9085820D02*
D03*
X9602500Y8720000D02*
D03*
X10675000Y9275000D02*
D03*
X11425000Y7425000D02*
D03*
X8825000Y9900000D02*
D03*
X9651600Y9185820D02*
D03*
X9602500Y8620000D02*
D03*
X9884998Y9719577D02*
D03*
X11425000Y7525000D02*
D03*
Y7725000D02*
D03*
D18*
X11419000Y9155000D02*
D03*
Y8895000D02*
D03*
Y8960000D02*
D03*
Y9025000D02*
D03*
Y9090000D02*
D03*
D19*
X10490000Y9135000D02*
D03*
X9810000Y8835000D02*
D03*
X10490000Y9185000D02*
D03*
X9810000D02*
D03*
Y8785000D02*
D03*
X10490000Y9085000D02*
D03*
Y9035000D02*
D03*
Y8985000D02*
D03*
Y8935000D02*
D03*
Y8885000D02*
D03*
Y8835000D02*
D03*
Y8785000D02*
D03*
Y8735000D02*
D03*
Y8635000D02*
D03*
X9810000D02*
D03*
Y8685000D02*
D03*
Y8735000D02*
D03*
Y8935000D02*
D03*
Y8985000D02*
D03*
Y9035000D02*
D03*
Y9085000D02*
D03*
Y9135000D02*
D03*
Y8885000D02*
D03*
X10490000Y8685000D02*
D03*
D20*
X11173400Y8475400D02*
D03*
X11007500Y8462500D02*
D03*
X9501600Y9060820D02*
D03*
Y9210820D02*
D03*
X11173400Y8625400D02*
D03*
X11007500Y8612500D02*
D03*
D21*
X10150000Y8910000D02*
D03*
D22*
X10864700Y7799680D02*
D03*
X10635700D02*
D03*
X10406700D02*
D03*
D23*
X10789300Y8075000D02*
D03*
X10560700D02*
D03*
D24*
X11135700Y7559480D02*
D03*
Y7330880D02*
D03*
D25*
X10102500Y8372500D02*
D03*
X10252500D02*
D03*
X11148400Y8775400D02*
D03*
X10998400D02*
D03*
D26*
X9787500Y7215000D02*
D03*
X9162500D02*
D03*
X9412500D02*
D03*
X9537500D02*
D03*
X9287500D02*
D03*
X9662500D02*
D03*
D27*
X9002440Y8083740D02*
D03*
X8772440Y8273740D02*
D03*
Y8083740D02*
D03*
X9002440Y8273740D02*
D03*
D28*
X10635700Y7140680D02*
D03*
D29*
X9972500Y6935000D02*
D03*
X8977500D02*
D03*
D30*
X11685000Y8687500D02*
D03*
Y9362500D02*
D03*
D31*
Y8910000D02*
D03*
D32*
Y9180000D02*
D03*
D33*
X11427500Y8776250D02*
D03*
Y9273750D02*
D03*
D34*
X11148400Y8775400D02*
X11215400D01*
X11325000Y8885000D01*
X11409000D01*
X11419000Y8895000D01*
X10587145Y8742500D02*
X10652500D01*
X10572500Y8727855D02*
X10587145Y8742500D01*
X10572500Y8697500D02*
Y8727855D01*
X10560000Y8685000D02*
X10572500Y8697500D01*
X9651600Y9185820D02*
Y9256600D01*
X11117500Y9337500D02*
Y9370000D01*
X11057500Y9277500D02*
X11117500Y9337500D01*
X9873254Y9277500D02*
X9875000D01*
X10857500Y9277500D02*
X10860000Y9280000D01*
X10677500Y9277500D02*
X10857500D01*
X10675000Y9275000D02*
X10677500Y9277500D01*
X10600000Y9275000D02*
X10675000D01*
X9785355Y9375355D02*
X9800000Y9390000D01*
X9750000Y9375355D02*
X9785355D01*
X9750000Y9355000D02*
Y9375355D01*
X9651600Y9256600D02*
X9750000Y9355000D01*
X9655000Y9387279D02*
Y9551495D01*
X9700000Y9368639D02*
Y9532855D01*
X9618861Y9287500D02*
X9700000Y9368639D01*
X9600221Y9332500D02*
X9655000Y9387279D01*
X9527730Y9332500D02*
X9600221D01*
X9420000Y9287500D02*
X9618861D01*
X9655000Y9551495D02*
X9718505Y9615000D01*
X10275000Y10037823D02*
Y10050000D01*
Y10037823D02*
X10300000Y10012823D01*
X9700000Y9532855D02*
X9714645Y9547500D01*
X9965000D01*
X10025000Y9487500D01*
X9242500Y9352500D02*
X9245370Y9355370D01*
X9650000Y10050000D02*
X9942500D01*
X9950000Y10042500D01*
X9625000Y9800000D02*
Y10025000D01*
X9575000Y9750000D02*
X9625000Y9800000D01*
X10300000Y9925000D02*
Y10012823D01*
Y9750000D02*
Y9925000D01*
X10175000Y9250000D02*
Y9625000D01*
X10300000Y9750000D01*
X9422500D02*
X9575000D01*
X9625000Y10025000D02*
X9650000Y10050000D01*
X9646361Y10110000D02*
X10110355D01*
X9500000Y9800000D02*
X9580000Y9880000D01*
Y10043640D01*
X10110355Y10110000D02*
X10125000Y10095355D01*
Y9925000D02*
Y10095355D01*
X9580000Y10043640D02*
X9646361Y10110000D01*
X10125000Y9250000D02*
Y9925000D01*
X10125000Y9925000D02*
X10125000Y9925000D01*
X9422500Y9800000D02*
X9500000D01*
X9422500Y9600000D02*
X9575000D01*
X9575000Y9600000D01*
X8825000Y9500000D02*
X8830000D01*
X8875000Y9545000D02*
Y9600000D01*
X8925000Y9650000D02*
X9027500D01*
X8830000Y9500000D02*
X8875000Y9545000D01*
Y9600000D02*
X8925000Y9650000D01*
X10490000Y9135000D02*
X10571543D01*
X10580772Y9144228D01*
X9925000Y9300000D02*
X9925000Y9300000D01*
Y9250000D02*
Y9300000D01*
X8950000Y9700000D02*
X9027500D01*
X9027500Y9600000D02*
X9027500Y9600000D01*
X8971539Y9600000D02*
X9027500D01*
X8935769Y9564231D02*
X8971539Y9600000D01*
X8935769Y9435769D02*
Y9564231D01*
X8900000Y9400000D02*
X8935769Y9435769D01*
X8825000Y9400000D02*
X8900000D01*
X9725000Y8850000D02*
X9740000Y8835000D01*
X9810000D01*
X10575000Y9225000D02*
Y9250000D01*
X10600000Y9275000D01*
X10550000Y9200000D02*
X10575000Y9225000D01*
X10532500Y9200000D02*
X10550000D01*
X10517500Y9185000D02*
X10532500Y9200000D01*
X10490000Y9185000D02*
X10517500D01*
X9906815Y9990622D02*
X9960000Y9937437D01*
X10012563D01*
X9800267Y9990622D02*
X9906815D01*
X10012563Y9937437D02*
X10025000Y9925000D01*
X9785000Y9975355D02*
X9800267Y9990622D01*
X9785000Y9629645D02*
Y9975355D01*
X9718505Y9615000D02*
X9770355D01*
X9785000Y9629645D01*
X9847500Y9303254D02*
X9873254Y9277500D01*
X9847500Y9303254D02*
Y9310355D01*
X9875000Y9250000D02*
Y9277500D01*
X9800000Y9325000D02*
X9832855D01*
X9847500Y9310355D01*
X9782500Y9185000D02*
X9810000D01*
X9745443Y9184276D02*
X9782500Y9185000D01*
X9735000Y8785000D02*
X9810000D01*
X9095000Y9447500D02*
X9100000Y9452500D01*
Y9475000D01*
X9082500Y9447500D02*
X9095000D01*
X9060000Y9425000D02*
X9082500Y9447500D01*
X9442500Y9342500D02*
X9517730D01*
X9527730Y9332500D01*
X8822500Y9897500D02*
X8825000Y9900000D01*
X8712500Y9897500D02*
X8822500D01*
X8617500Y9802500D02*
X8712500Y9897500D01*
X9060000Y9352500D02*
Y9425000D01*
X8950000Y9750000D02*
X9027500D01*
X8925000Y9775000D02*
X8950000Y9750000D01*
X9311372Y9178872D02*
X9420000Y9287500D01*
X8971128Y9178872D02*
X9311372D01*
X8950000Y9200000D02*
X8971128Y9178872D01*
X8950000Y9200000D02*
Y9375000D01*
X9000000Y9425000D01*
Y9545000D01*
X9005000Y9550000D01*
X9027500D01*
X10025000Y9250000D02*
Y9487500D01*
X9975000Y8515221D02*
Y8570000D01*
X9912279Y8452500D02*
X9975000Y8515221D01*
X9412500Y7215000D02*
X9425000Y7227500D01*
Y8197500D01*
X9680000Y8452500D01*
X9912279D01*
X10025000Y8501581D02*
Y8570000D01*
X9930919Y8407500D02*
X10025000Y8501581D01*
X9535355Y7612500D02*
X9537500Y7610355D01*
Y7215000D02*
Y7610355D01*
X9535355Y8192855D02*
X9750000Y8407500D01*
X9930919D01*
X9535355Y7612500D02*
Y8192855D01*
X10252500Y8450000D02*
X10325000Y8522500D01*
Y8570000D01*
X10675000Y9450000D02*
X10701820Y9476820D01*
Y9665500D01*
X10400000Y9450000D02*
X10675000D01*
X10325000Y9250000D02*
Y9375000D01*
X10400000Y9450000D01*
X9527500Y8497500D02*
X9893640D01*
X9925000Y8528860D02*
Y8570000D01*
X9893640Y8497500D02*
X9925000Y8528860D01*
X9275000Y7227500D02*
X9287500Y7215000D01*
X9275000Y7227500D02*
Y8245000D01*
X9527500Y8497500D01*
X9949558Y8362500D02*
X10075000Y8487942D01*
Y8570000D01*
X9662500Y8200000D02*
X9825000Y8362500D01*
X9949558D01*
X9662500Y7215000D02*
Y8200000D01*
X10752500Y8742500D02*
X10752500Y8742500D01*
X10752500Y8592500D02*
Y8742500D01*
X10490000Y8685000D02*
X10560000D01*
X11425000Y7525000D02*
Y7725000D01*
X10075000Y9250000D02*
Y9525000D01*
X9975000Y9625000D02*
X10075000Y9525000D01*
X9900000Y9625000D02*
X9975000D01*
X9875000Y9709579D02*
X9884998Y9719577D01*
X9875000Y9650000D02*
Y9709579D01*
Y9650000D02*
X9900000Y9625000D01*
X10425000Y9250000D02*
Y9310355D01*
X10425000Y9310355D02*
X10425000Y9310355D01*
X10425000Y9310355D02*
Y9335355D01*
X10439645Y9350000D01*
X10750000D01*
X10825000Y9425000D01*
Y9661680D01*
X10828820Y9665500D01*
X8979940Y8372844D02*
X9000000Y8352784D01*
X8979940Y8372844D02*
Y8411240D01*
X9000000Y8276180D02*
Y8352784D01*
Y8276180D02*
X9002440Y8273740D01*
X8962440Y8428740D02*
X8979940Y8411240D01*
X8962440Y8428740D02*
X8962440Y8428740D01*
Y8553740D01*
D35*
X9800000Y9325000D02*
Y9390000D01*
X11307500Y9560000D02*
Y9582500D01*
X11117500Y9370000D02*
X11307500Y9560000D01*
X10955820Y9210820D02*
Y9665500D01*
X10830000Y9085000D02*
X10955820Y9210820D01*
X10490000Y9085000D02*
X10830000D01*
X9901250Y9391250D02*
Y9476250D01*
X9902500Y9477500D01*
X9900000Y9390000D02*
X9901250Y9391250D01*
X9900000Y9325000D02*
Y9390000D01*
X10783750Y9176250D02*
X10785000Y9177500D01*
X10676250Y9176250D02*
X10783750D01*
X10675000Y9175000D02*
X10676250Y9176250D01*
X10580772Y9144228D02*
X10611544Y9175000D01*
X10675000D01*
X9900000Y9325000D02*
X9925000Y9300000D01*
X9883749Y9820826D02*
X9884998Y9819577D01*
X10375000Y8570000D02*
Y8685000D01*
X10370000Y8690000D02*
X10375000Y8685000D01*
X8875000Y9700000D02*
X8950000D01*
X9645000Y8850000D02*
X9725000D01*
X9602500Y8807500D02*
X9645000Y8850000D01*
X9602500Y8720000D02*
Y8807500D01*
X9716606Y9184276D02*
X9745443D01*
X9702500Y8752499D02*
X9735000Y8785000D01*
X9702500Y8630000D02*
Y8752499D01*
X10425000Y8530000D02*
X10487500Y8467500D01*
X10425000Y8530000D02*
Y8542500D01*
X10487500Y8435000D02*
Y8467500D01*
X9345000Y9342500D02*
X9442500D01*
X9491600Y9210820D02*
X9501600D01*
X9317500Y9315000D02*
X9345000Y9342500D01*
X8925000Y9775000D02*
Y9875000D01*
X9389652Y9108872D02*
X9491600Y9210820D01*
X10252500Y8372500D02*
Y8450000D01*
D36*
X8833629Y9108872D02*
X9231371D01*
X8862500Y10015000D02*
X9045000Y10197500D01*
X11240000Y9830000D02*
X11307500Y9762500D01*
X10192500Y8002500D02*
X10302500Y8112500D01*
X8485000Y9635000D02*
X8577500Y9727500D01*
X9242500Y6890000D02*
X9325000D01*
X9165000Y6967500D02*
X9242500Y6890000D01*
X9085000Y7745000D02*
X9155000Y7815000D01*
Y8195000D01*
X8832500Y9110000D02*
X8833629Y9108872D01*
X9045000Y7510000D02*
X9162500Y7392500D01*
X9017500Y7510000D02*
X9045000D01*
D37*
X10436434Y10197500D02*
X10453934Y10180000D01*
X9045000Y10197500D02*
X10436434D01*
X10453934Y10180000D02*
X11181421D01*
X11240000Y10121421D01*
Y9830000D02*
Y10121421D01*
X10523200Y7140680D02*
X10635700D01*
X10510700Y7128180D02*
X10523200Y7140680D01*
X10445000Y6890000D02*
X10510700Y6955700D01*
Y7128180D01*
X10192500Y6890000D02*
Y8002500D01*
Y6890000D02*
X10445000D01*
X8465000Y9615000D02*
X8485000Y9635000D01*
X9325000Y6890000D02*
X9727500Y6882500D01*
X8465000Y9110000D02*
X8832500D01*
X8465000D02*
Y9615000D01*
X8533750Y7578750D02*
X8700000Y7745000D01*
X8465000Y7647500D02*
Y9110000D01*
X8700000Y7745000D02*
X9085000D01*
X8465000Y7647500D02*
X8533750Y7578750D01*
X8602500Y7510000D02*
X9017500D01*
X8533750Y7578750D02*
X8602500Y7510000D01*
D38*
X11050000Y10207500D02*
X11052500Y10210000D01*
X11050000Y10050000D02*
Y10207500D01*
X11040000Y10040000D02*
X11050000Y10050000D01*
X11040000Y9973432D02*
Y10040000D01*
X11024068Y9957500D02*
X11040000Y9973432D01*
X10987500Y9957500D02*
X11024068D01*
X10955820Y9925820D02*
X10987500Y9957500D01*
X10955820Y9792500D02*
Y9925820D01*
X11419000Y9155000D02*
X11540000D01*
X8840000Y9735000D02*
X8875000Y9700000D01*
X8830000Y9800000D02*
X8840000Y9790000D01*
Y9735000D02*
Y9790000D01*
X9646600Y9085820D02*
X9651600D01*
X9621600Y9060820D02*
X9646600Y9085820D01*
X9484333Y9078087D02*
X9501600Y9060820D01*
X9621600D01*
X9453720Y9078087D02*
X9484333D01*
X11425000Y7355000D02*
Y7425000D01*
X11156580Y7310000D02*
X11380000D01*
X11135700Y7330880D02*
X11156580Y7310000D01*
X11380000D02*
X11425000Y7355000D01*
X9675374Y9184276D02*
X9716606D01*
X9692500Y8620000D02*
X9702500Y8630000D01*
X8825000Y9900000D02*
X8900000D01*
X8925000Y9875000D01*
X9602500Y8620000D02*
X9692500D01*
D39*
X10825000Y10050000D02*
X10950000D01*
X10825000D02*
X10832500Y10042500D01*
Y9897500D02*
Y10042500D01*
X10830660Y9895660D02*
X10832500Y9897500D01*
X10830660Y9794340D02*
Y9895660D01*
X10828820Y9792500D02*
X10830660Y9794340D01*
X9280000Y9615000D02*
Y9620000D01*
Y9615000D02*
X9350000Y9545000D01*
Y9475000D02*
Y9545000D01*
X9280000Y9735000D02*
X9350000Y9805000D01*
Y9875000D01*
X9430000Y8790000D02*
X9508284D01*
X9520000Y8801716D01*
Y8850000D01*
X9565000Y8895000D01*
X9743640D01*
X9752683Y8885956D01*
X9809044D01*
X9810000Y8885000D01*
X8986716Y9025000D02*
X9404994D01*
X8975000Y9013284D02*
X8986716Y9025000D01*
X8884941Y8735061D02*
Y8923225D01*
X8975000Y9013284D02*
Y9013284D01*
X8884941Y8923225D02*
X8975000Y9013284D01*
X9404994Y9025000D02*
X9446090Y8983904D01*
X9777869D01*
X9275000Y8600000D02*
Y8850000D01*
X9360000Y8935000D01*
X8837440Y8428740D02*
Y8687560D01*
X8884941Y8735061D01*
X9062440Y8553740D02*
X9228740D01*
X9275000Y8600000D01*
X8837440Y8370456D02*
Y8428740D01*
X9777869Y8983904D02*
X9778008Y8984043D01*
X9808765D01*
X8867440Y8340821D02*
Y8341166D01*
X8900000Y8175000D02*
Y8308261D01*
X8867440Y8340821D02*
X8900000Y8308261D01*
X8849866Y8358740D02*
X8867440Y8341166D01*
X8837440Y8370456D02*
X8849156Y8358740D01*
X8849866D01*
X8772440Y8083740D02*
X8782440D01*
X8855724Y8157025D01*
X8882025D01*
X8900000Y8175000D01*
X9360000Y8935000D02*
X9810000D01*
D40*
X11409509Y8969491D02*
X11419000Y8960000D01*
X11318987Y8986831D02*
X11336327Y8969491D01*
X10518315Y8986831D02*
X11318987D01*
X10518314Y9033168D02*
X11338181D01*
X11336327Y8969491D02*
X11409509D01*
X11411807Y9032193D02*
X11419000Y9025000D01*
X11338181Y9033168D02*
X11339156Y9032193D01*
X11411807D01*
X10516483Y8985000D02*
X10518315Y8986831D01*
X10490000Y8985000D02*
X10516483D01*
Y9035000D02*
X10518314Y9033168D01*
X10490000Y9035000D02*
X10516483D01*
D41*
X10574820Y9830600D02*
D03*
Y9627400D02*
D03*
X11082820Y9729000D02*
D03*
D42*
X11500000Y10000000D02*
D03*
X8500000Y7000000D02*
D03*
X11500000D02*
D03*
X8500000Y10000000D02*
D03*
D43*
X11700006Y9800005D02*
D03*
X11600006Y9600005D02*
D03*
Y8400005D02*
D03*
X11700006Y8200004D02*
D03*
X11600006Y8000004D02*
D03*
X11700006Y7800004D02*
D03*
X11600006Y7600004D02*
D03*
X11700006Y7400004D02*
D03*
X11600006Y7200004D02*
D03*
Y6800004D02*
D03*
X11400006Y9600005D02*
D03*
X11500006Y8600005D02*
D03*
X11400006Y8400005D02*
D03*
X11500006Y8200004D02*
D03*
X11400006Y7200004D02*
D03*
Y6800004D02*
D03*
X11200006Y9600005D02*
D03*
X11300006Y9400005D02*
D03*
X11200006Y9200005D02*
D03*
X11300006Y8600005D02*
D03*
Y8200004D02*
D03*
X11200006Y8000004D02*
D03*
X11300006Y7800004D02*
D03*
X11200006Y6800004D02*
D03*
X11100006Y8200004D02*
D03*
Y7000004D02*
D03*
X11000006Y6800004D02*
D03*
X10900006Y7000004D02*
D03*
X10800006Y6800004D02*
D03*
X10600006Y8400005D02*
D03*
Y6800004D02*
D03*
X10400006Y9600005D02*
D03*
Y7600004D02*
D03*
X10000005Y8000004D02*
D03*
Y7600004D02*
D03*
Y7200004D02*
D03*
X9900005Y8200004D02*
D03*
X9800005Y8000004D02*
D03*
X9900005Y7800004D02*
D03*
X9800005Y7600004D02*
D03*
X9900005Y7400004D02*
D03*
X9700005Y9800005D02*
D03*
Y7000004D02*
D03*
X9400005Y10000005D02*
D03*
X9500005Y7000004D02*
D03*
X9200005Y10000005D02*
D03*
Y8800005D02*
D03*
Y7600004D02*
D03*
X9300005Y7000004D02*
D03*
X9200005Y6800004D02*
D03*
X9000005Y10000005D02*
D03*
Y8800005D02*
D03*
Y7200004D02*
D03*
X8800005Y9600005D02*
D03*
Y8800005D02*
D03*
X8900005Y7400004D02*
D03*
X8800005Y7200004D02*
D03*
Y6800004D02*
D03*
X8600005Y9600005D02*
D03*
X8700005Y9000005D02*
D03*
X8600005Y8800005D02*
D03*
X8700005Y8600005D02*
D03*
X8600005Y8000004D02*
D03*
X8700005Y7400004D02*
D03*
X8600005Y7200004D02*
D03*
Y6800004D02*
D03*
X8500005Y7400004D02*
D03*
X8400005Y7200004D02*
D03*
D44*
X11057500Y9277500D02*
D03*
X10860000Y9280000D02*
D03*
X9170000Y9620000D02*
D03*
Y9730000D02*
D03*
X9280000Y9620000D02*
D03*
Y9730000D02*
D03*
X9930000Y9130000D02*
D03*
X10260000D02*
D03*
X10370000D02*
D03*
X10150000Y9020000D02*
D03*
X10260000D02*
D03*
X10370000D02*
D03*
X10150000Y8910000D02*
D03*
X10040000Y9130000D02*
D03*
X10150000D02*
D03*
X9930000Y9020000D02*
D03*
X10040000Y8910000D02*
D03*
Y9020000D02*
D03*
X10260000Y8910000D02*
D03*
X10370000D02*
D03*
X10150000Y8800000D02*
D03*
X10260000D02*
D03*
X10370000D02*
D03*
X10150000Y8690000D02*
D03*
X9930000Y8800000D02*
D03*
X10040000D02*
D03*
X9930000Y8910000D02*
D03*
X10040000Y8690000D02*
D03*
X9930000D02*
D03*
X10370000D02*
D03*
X10260000D02*
D03*
X9497500Y8717500D02*
D03*
X9453720Y9078087D02*
D03*
X9075000Y9237500D02*
D03*
Y9110000D02*
D03*
D45*
X9573631Y9401369D02*
D03*
X10275000Y10050000D02*
D03*
X10620000Y10045000D02*
D03*
X9950000Y10042500D02*
D03*
X10785000Y9177500D02*
D03*
X11175000Y8350000D02*
D03*
X11000000D02*
D03*
X10647500Y8485000D02*
D03*
X10387500Y8467500D02*
D03*
X11425000Y7925000D02*
D03*
X11125000Y7700000D02*
D03*
X10950000Y8075000D02*
D03*
X10860000Y7687500D02*
D03*
X10107500Y8247500D02*
D03*
X9878856Y9923122D02*
D03*
X8725000Y9800000D02*
D03*
Y9400000D02*
D03*
X9782500Y7065000D02*
D03*
X9150000Y8425000D02*
D03*
X8650000D02*
D03*
X9000000Y7950000D02*
D03*
X8650000Y8275000D02*
D03*
X10192500Y6890000D02*
D03*
X9727500Y6882500D02*
D03*
X9430000Y8790000D02*
D03*
D46*
X9902500Y9477500D02*
D03*
X10702500Y9902500D02*
D03*
X10832500Y9897500D02*
D03*
X11540000Y9155000D02*
D03*
D47*
X9242500Y9352500D02*
D03*
%TF.MD5,1f023dc8d82b064de29bbdd7184eba70*%
M02*
